<svg width="74" height="74" viewBox="0 0 74 74" fill="none" xmlns="http://www.w3.org/2000/svg">
<path d="M32.0499 50.75L49.9249 39.2916C50.7805 38.7416 51.2083 37.9778 51.2083 37C51.2083 36.0222 50.7805 35.2583 49.9249 34.7083L32.0499 23.25C31.1333 22.6389 30.2007 22.5924 29.2523 23.1106C28.3038 23.6289 27.8308 24.4392 27.8333 25.5416V48.4583C27.8333 49.5583 28.3075 50.3686 29.2559 50.8893C30.2044 51.41 31.1357 51.3635 32.0499 50.75ZM36.9999 73.6666C31.9277 73.6666 27.161 72.7035 22.6999 70.7773C18.2388 68.8511 14.3583 66.2392 11.0583 62.9417C7.75825 59.6417 5.14636 55.7611 3.22259 51.3C1.29881 46.8389 0.335696 42.0722 0.333252 37C0.333252 31.9278 1.29636 27.1611 3.22259 22.7C5.14881 18.2389 7.7607 14.3583 11.0583 11.0583C14.3583 7.75831 18.2388 5.14642 22.6999 3.22265C27.161 1.29887 31.9277 0.335757 36.9999 0.333313C42.0721 0.333313 46.8388 1.29642 51.2999 3.22265C55.761 5.14887 59.6416 7.76076 62.9416 11.0583C66.2416 14.3583 68.8547 18.2389 70.7809 22.7C72.7071 27.1611 73.669 31.9278 73.6666 37C73.6666 42.0722 72.7035 46.8389 70.7773 51.3C68.851 55.7611 66.2391 59.6417 62.9416 62.9417C59.6416 66.2417 55.761 68.8548 51.2999 70.781C46.8388 72.7072 42.0721 73.6691 36.9999 73.6666Z" fill="#FC0000"/>
</svg>
