<svg width="44" height="44" viewBox="0 0 44 44" fill="none" xmlns="http://www.w3.org/2000/svg">
<path d="M12.8333 27.5V16.5C12.8333 15.4917 13.1927 14.6282 13.9113 13.9095C14.63 13.1908 15.4929 12.8321 16.5 12.8333H31.4417L26.7208 8.1125L29.3333 5.5L38.5 14.6667L29.3333 23.8333L26.7208 21.2667L31.4417 16.5H16.5V27.5H12.8333ZM9.16667 38.5C8.15834 38.5 7.29484 38.1407 6.57617 37.422C5.8575 36.7033 5.49878 35.8404 5.5 34.8333V7.33333H9.16667V34.8333H31.1667V27.5H34.8333V34.8333C34.8333 35.8417 34.474 36.7052 33.7553 37.4238C33.0367 38.1425 32.1738 38.5012 31.1667 38.5H9.16667Z" fill="#1B4B66"/>
</svg>
